<svg xmlns="http://www.w3.org/2000/svg" viewBox="0 0 440.76 512"><path d="M36,0H476c.13,1.82.38,3.63.38,5.45V469.37H121V512h-1L99.63,497.56,79,512H78V469H35.61V5.41C35.63,3.63,35.88,1.82,36,0ZM257.7,157v62.58h17.38V201.12c4.69-1.63,7.18.11,9,4a113.78,113.78,0,0,0,7,12.1c.76,1.19,2.33,2.56,3.59,2.62,5.57.28,11.15.12,17.52.12l-13.4-23.47a30.38,30.38,0,0,0,3.51-3c5.46-6.46,7.21-13.82,4.4-21.87-2.62-7.56-7.77-13.6-15.78-14.34C280.06,156.27,269.05,157,257.7,157Zm-41.89,63.51a32.21,32.21,0,1,0-31.66-33.17,32.2,32.2,0,0,0,31.66,33.17h0Zm148,14.09c-17.86-.13-32.47,14-32.7,31.55s14.13,32.52,31.59,32.76c17.94.25,32.83-14.19,32.92-31.91a32.09,32.09,0,0,0-31.82-32.37h0Zm-153.31,0c-17.87,0-32.37,14.19-32.46,31.77a32.2,32.2,0,1,0,32.61-31.76h-.15Zm-62.33-34.18c4.25,0,7.91.24,11.54,0A20.8,20.8,0,0,0,179.12,181c.93-10.92-5.71-22.2-15.83-23.48-10.57-1.33-21.43-.29-32.3-.29v62.35h17.16ZM131,297.93h17.22V274.75H168.9V260.49H148.29V250h25.47V235.24H131ZM332.27,171.81v47.88h17.35V171.64h18V156.93H314.27v14.88ZM251.5,235.23V298h45.56V282.91H268.62V235.23Zm53.73-.11V298h16.65V235.12Z" transform="translate(-35.61)"/><path d="M275.17,186.39V170.9c4.91,1.1,9.66,1.44,13.55,3.44,1.28.66,1.4,7.63.22,8.25C285,184.65,280.31,185.13,275.17,186.39Z" transform="translate(-35.61)"/><path d="M202,188.48c-.05-10.11,5.69-16.74,14.47-16.71S230.87,178.29,231,188c.09,10.11-5.63,16.93-14.27,17S202,198.51,202,188.48Z" transform="translate(-35.61)"/><path d="M377.92,266.55c0,10-5.85,16.83-14.51,16.84s-14.52-6.7-14.48-16.77c0-9.86,5.68-16.48,14.15-16.6C371.78,249.9,377.91,256.73,377.92,266.55Z" transform="translate(-35.61)"/><path d="M195.85,266.33c.12-9.81,5.89-16.34,14.42-16.31s14.72,7.08,14.55,16.83c-.17,10.08-6.07,16.66-14.81,16.52S195.74,276.53,195.85,266.33Z" transform="translate(-35.61)"/><path d="M148.45,170.7c4.48,1.28,8.84,1.7,12,3.84,1.35.91,1.4,7.11.09,8-3.19,2.14-7.53,2.58-12.13,3.92Z" transform="translate(-35.61)"/></svg>