<svg xmlns="http://www.w3.org/2000/svg" viewBox="0 0 55.1 64"><path d="M228.51,448h55c0,.23.05.45.05.68v58H239.13V512H239l-2.55-1.81L233.88,512h-.12v-5.37h-5.3V448.68C228.46,448.45,228.49,448.23,228.51,448Zm27.71,19.63v7.82h2.17v-2.31a.8.8,0,0,1,1.13.5,14.08,14.08,0,0,0,.87,1.51.73.73,0,0,0,.45.33c.7,0,1.4,0,2.19,0l-1.67-2.94a5.07,5.07,0,0,0,.44-.37,2.68,2.68,0,0,0,.55-2.74,2.4,2.4,0,0,0-2-1.79C259,467.53,257.64,467.63,256.22,467.63ZM251,475.56a4,4,0,1,0-4-4.14,4,4,0,0,0,4,4.14h0Zm18.49,1.77a4,4,0,1,0,4,4,4,4,0,0,0-4-4Zm-19.16,0a4,4,0,1,0,4,4,4,4,0,0,0-4-4Zm-7.79-4.28c.53,0,1,0,1.44,0a2.6,2.6,0,0,0,2.43-2.42,2.63,2.63,0,0,0-2-2.94,32,32,0,0,0-4,0v7.8h2.15Zm-2.15,12.19h2.16v-2.9h2.58v-1.78h-2.57v-1.31h3.18V477.4h-5.35Zm25.16-15.76v6h2.17v-6H270v-1.84h-6.67v1.86Zm-10.09,7.92v7.85h5.69v-1.89h-3.55v-6Zm6.71,0v7.86h2.08v-7.86Z" transform="translate(-228.46 -448)"/><path d="M258.4,471.3v-1.94a7.41,7.41,0,0,1,1.7.43,1.24,1.24,0,0,1,0,1A7.88,7.88,0,0,1,258.4,471.3Z" transform="translate(-228.46 -448)"/><path d="M249.26,471.56a1.83,1.83,0,1,1,3.62-.06,1.83,1.83,0,1,1-3.62.06Z" transform="translate(-228.46 -448)"/><path d="M271.25,481.32a1.87,1.87,0,0,1-1.82,2.1,2.11,2.11,0,0,1,0-4.17A1.88,1.88,0,0,1,271.25,481.32Z" transform="translate(-228.46 -448)"/><path d="M248.49,481.29a1.84,1.84,0,0,1,1.8-2,1.9,1.9,0,0,1,1.82,2.11,1.85,1.85,0,0,1-1.85,2.06C249.17,483.4,248.48,482.57,248.49,481.29Z" transform="translate(-228.46 -448)"/><path d="M242.57,469.34a5.4,5.4,0,0,1,1.5.48,1.1,1.1,0,0,1,0,1,5.66,5.66,0,0,1-1.52.49Z" transform="translate(-228.46 -448)"/></svg>