<svg xmlns="http://www.w3.org/2000/svg" viewBox="0 0 165.29 192"><path d="M173.51,320h165c.05.68.15,1.36.15,2V496H205.38v16H205l-7.64-5.42L189.63,512h-.37V495.88h-15.9V322C173.37,321.36,173.46,320.68,173.51,320Zm83.13,58.88v23.46h6.52v-6.92c1.76-.61,2.69,0,3.38,1.5a41.76,41.76,0,0,0,2.62,4.54,2.14,2.14,0,0,0,1.35,1c2.09.11,4.18.05,6.57.05l-5-8.81a10.85,10.85,0,0,0,1.32-1.12,8,8,0,0,0,1.65-8.2c-1-2.84-2.92-5.1-5.92-5.38C265,378.6,260.9,378.88,256.64,378.88Zm-15.7,23.81a12.08,12.08,0,1,0-11.88-12.44,12.07,12.07,0,0,0,11.88,12.44h0ZM296.43,408a12.06,12.06,0,1,0,11.94,12.14A12.1,12.1,0,0,0,296.43,408h0Zm-57.49,0a12,12,0,1,0,.06,0Zm-23.37-12.82c1.6,0,3,.09,4.33,0a7.81,7.81,0,0,0,7.28-7.28c.35-4.1-2.14-8.33-5.94-8.81-4-.5-8-.11-12.11-.11v23.38h6.43Zm-6.44,36.56h6.46V423h7.76v-5.35h-7.73v-3.93h9.55v-5.54h-16Zm75.48-47.29v17.95h6.5v-18h6.75v-5.52h-20v5.58Zm-30.29,23.78v23.54H271.4v-5.66H260.74V408.21Zm20.15,0v23.58h6.24V408.17Z" transform="translate(-173.36 -320)"/><path d="M263.19,389.9v-5.81a21.65,21.65,0,0,1,5.09,1.29c.48.25.52,2.86.08,3.09A24,24,0,0,1,263.19,389.9Z" transform="translate(-173.36 -320)"/><path d="M235.76,390.68c0-3.79,2.13-6.28,5.42-6.27s5.4,2.45,5.45,6.09c0,3.79-2.11,6.35-5.35,6.38S235.76,394.44,235.76,390.68Z" transform="translate(-173.36 -320)"/><path d="M301.72,420c0,3.75-2.19,6.31-5.44,6.31s-5.44-2.51-5.43-6.29,2.13-6.18,5.31-6.22S301.72,416.27,301.72,420Z" transform="translate(-173.36 -320)"/><path d="M233.45,419.87c.05-3.68,2.21-6.12,5.41-6.11s5.52,2.65,5.45,6.31-2.27,6.25-5.55,6.19S233.41,423.7,233.45,419.87Z" transform="translate(-173.36 -320)"/><path d="M215.68,384c1.68.48,3.31.64,4.5,1.44.5.34.52,2.67,0,3-1.2.81-2.82,1-4.55,1.47Z" transform="translate(-173.36 -320)"/></svg>