<svg xmlns="http://www.w3.org/2000/svg" viewBox="0 0 32 32"><path d="M15.69 14.73h-2.42V9.65h2.87a2.22 2.22 0 0 1 2.45 2.45c0 1.69-1 2.63-2.9 2.63zm.44 2h-2.85v5.6h3c1.95 0 3-1 3-2.82s-1.11-2.76-3.15-2.76zM32 14.98v2c-1.5.24-2.42 1.62-3 3.83a28.11 28.11 0 0 0-.56 7c.06 2.17-1.29 4.18-3.11 4.18H6.65c-1.83 0-3.18-2-3.12-4.18a28.11 28.11 0 0 0-.53-7c-.58-2.21-1.5-3.59-3-3.79v-2c1.5-.22 2.43-1.62 3-3.8a28.11 28.11 0 0 0 .56-7C3.5 2.05 4.85.04 6.68.04h18.68c1.82 0 3.17 2 3.11 4.18a28.11 28.11 0 0 0 .53 7c.58 2.18 1.5 3.58 3 3.76zM21.43 19.7c0-2.27-1.27-3.91-3.16-4.17v-.09a3.68 3.68 0 0 0 2.48-3.71 3.91 3.91 0 0 0-4.08-4.24h-5.55v17h5.57c2.96.02 4.74-1.8 4.74-4.79z" fill="#7a52b3"/></svg>