<svg xmlns="http://www.w3.org/2000/svg" viewBox="0 0 32 32"><path d="M0 0h32v32H0z" fill="#f7df1e"/><path d="M8.41 26.74l2.45-1.48c.48.84.9 1.55 1.94 1.55s1.61-.39 1.61-1.89V14.69h3V25c0 3.11-1.82 4.53-4.49 4.53a4.68 4.68 0 0 1-4.51-2.79m10.64-.32L21.5 25a3.27 3.27 0 0 0 3 1.83c1.25 0 2-.63 2-1.48 0-1-.82-1.4-2.19-2l-.75-.35c-2.17-.9-3.56-2.06-3.56-4.51 0-2.25 1.72-4 4.4-4a4.46 4.46 0 0 1 4.28 2.4l-2.39 1.54a2.07 2.07 0 0 0-1.94-1.29 1.31 1.31 0 0 0-1.44 1.29c0 .9.56 1.27 1.85 1.82l.75.33c2.56 1.09 4 2.21 4 4.72 0 2.71-2.13 4.19-5 4.19a5.77 5.77 0 0 1-5.46-3.07"/></svg>