<svg xmlns="http://www.w3.org/2000/svg" viewBox="0 0 32 32"><path d="M2 7.52c-2.8 4.22-2.45 9.71-.29 14.21a4.77 4.77 0 0 1 .16.32l.13.18a.75.75 0 0 0 0 .14 2.12 2.12 0 0 0 .11.21l.2.36a1.37 1.37 0 0 0 .13.2c.07.13.16.26.23.39l.1.17a8.26 8.26 0 0 0 .42.61c.15.2.21.3.32.44l.11.16.3.37a1.71 1.71 0 0 0 .11.14l.41.48h0a4.12 4.12 0 0 0 .57.61l.33.34.13.13.45.43h0l.08.06a4.59 4.59 0 0 0 .41.36l.17.15.35.28.18.14.38.29.14.1h0l.38.26.16.11.58.38.16.09.45.26.24.13.4.21h.08l.12.07.5.23.11.05.58.26h.14l.55.21h.06l.62.21h.14a5.59 5.59 0 0 0 .63.19c13.7 2.78 17.68-8.39 17.68-8.39-3.34 4.52-9.28 5.71-14.9 4.39-.2 0-.41-.12-.62-.19l-.76-.25h-.08c-.18-.07-.36-.13-.53-.21h-.15l-.58-.25-.11-.06-.48-.26-.14-.08-.37-.19-.25-.13-.45-.26a.6.6 0 0 0-.15-.09l-.64-.43-.11-.11c-.15-.09-.28-.18-.42-.28l-.14-.11-.39-.32-.18-.14a3.17 3.17 0 0 1-.35-.26l-.16-.12-.44-.39h-.06l-.46-.43-.13-.13-.33-.34-.13-.19c-.15-.15-.28-.3-.42-.45h0l-.43-.55-.11-.1-.3-.38c-.16-.21-.31-.41-.44-.62C2.87 15.71 1.74 9.61 4.23 4.61zm8.82-3.57a10.54 10.54 0 0 0-.33 10.4 13 13 0 0 0 .9 1.57 6.92 6.92 0 0 0 1.06 1.36c.14.17.29.33.45.5l.1.12a9.77 9.77 0 0 0 .47.45h0l.56.47.12.1.57.43h0l.27.18.12.08.42.28h.06l.41.34h.17l.26.14h0l.57.31.58.25.2.07.41.15.19.08a5.94 5.94 0 0 0 .6.18C29.55 23.23 32 14.75 32 14.75c-2.21 3.3-6.47 4.87-11 3.64-.2 0-.4-.12-.6-.18l-.18-.06-.41-.15-.21-.07-.45-.19a.34.34 0 0 1-.15-.06l-.56-.26-.25-.19H18l-.36-.21h-.08c-.14-.09-.29-.18-.42-.28a.57.57 0 0 1-.13-.08l-.28-.19-.53-.52-.13-.11a13.24 13.24 0 0 1-4.32-6.39 10.23 10.23 0 0 1 .75-8zm7.4-2.66a6.64 6.64 0 0 0-.5 6.18 8.55 8.55 0 0 0 4.82 4.66l.26.1h.11c.13 0 .25.09.38.12 5.84 1.17 7.42-3.12 7.85-3.74-1.4 2.1-3.73 2.62-6.59 1.88A8.12 8.12 0 0 1 23 9.91 8.32 8.32 0 0 1 21.56 9c-2.57-2-4.15-5.87-2.48-9z" fill="#0968a5"/></svg>