<svg xmlns="http://www.w3.org/2000/svg" viewBox="0 0 32 32"><path d="M26.31 10.37l-1-.36.16-.79C26.22 5 25.71 1.54 24 .41s-4.4 0-7.16 2.74l-.8.82-.53-.55C12.59.54 9.7-.68 8 .45S5.8 4.76 6.5 8.79l.24 1.19-1.19.42C2.16 11.73 0 13.81 0 16s2.32 4.46 5.85 5.82q.44.16.87.3l-.25 1.29c-.67 4-.15 7.11 1.51 8.18s4.6 0 7.41-2.79l.67-.69.86.89c2.72 2.63 5.41 3.69 7.07 2.61s2.28-4.5 1.55-8.61l-.19-1 .59-.21C29.61 20.44 32 18.23 32 16s-2.23-4.29-5.69-5.63zm-.8 10l-.53.19A39.27 39.27 0 0 0 23.36 16a38.15 38.15 0 0 0 1.55-4.49l1 .33c3 1.15 4.76 2.84 4.76 4.15s-1.99 3.17-5.16 4.35zm-1.31 2.9a14.39 14.39 0 0 1 .15 4.73 3.31 3.31 0 0 1-1 2.23c-1 .66-3.17-.2-5.49-2.44l-.81-.83a36.43 36.43 0 0 0 2.68-3.83A27.59 27.59 0 0 0 24 22.4a8.23 8.23 0 0 1 .2.87zm-13.29 6.87a2.52 2.52 0 0 1-2.24.09c-1-.65-1.43-3.18-.86-6.57l.23-1.19a28.13 28.13 0 0 0 4.31.7A38.82 38.82 0 0 0 15.1 27l-.61.63a11.46 11.46 0 0 1-3.58 2.51zm-4.62-9.8a11.21 11.21 0 0 1-3.73-2.23A3.28 3.28 0 0 1 1.37 16c0-1.31 1.73-3 4.63-4.12l1.1-.39A40.26 40.26 0 0 0 8.66 16a41.89 41.89 0 0 0-1.58 4.6c-.26-.07-.53-.16-.79-.26zM7.84 8.5c-.6-3.46-.2-6.06.8-6.72s3.44.3 5.94 2.79l.48.5a36.66 36.66 0 0 0-2.73 3.79 30.33 30.33 0 0 0-4.27.75L7.84 8.5zm13.8 3.83l-1-1.8 2.92.57-1 3.1-.92-1.87zM16 6.17a30.7 30.7 0 0 1 1.9 2.55 34 34 0 0 0-3.78 0L16 6.17zm-5.67 6.17q-.47.91-.9 1.86c-.4-1.06-.74-2.11-1-3.11a27.1 27.1 0 0 1 2.9-.56l-1 1.81zm1 9.18A26.42 26.42 0 0 1 8.41 21l1-3.18.91 1.86 1.04 1.84zm4.69 4.36l-1.92-2.59h1.87 1.93a28.72 28.72 0 0 1-1.85 2.59zm6.53-8.12a31.87 31.87 0 0 1 1.07 3.16 25.42 25.42 0 0 1-3 .57l1-1.83.96-1.9zm-2.08 1.14l-1.54 2.78-2.93.12c-.98 0-2 0-2.9-.11q-.82-1.35-1.56-2.79h0c-.49-.9-.94-1.9-1.37-2.9l1.36-2.9h0l1.56-2.78q1.42-.12 2.91-.12h0l2.92.12 1.54 2.77L21.84 16l-1.37 2.9zm2.82-17.16c1.07.69 1.48 3.49.81 7.17 0 .23-.09.47-.14.71a30.2 30.2 0 0 0-4.28-.76A36 36 0 0 0 17 5.07l.74-.76c2.33-2.31 4.54-3.22 5.55-2.57zM16 12.76A3.05 3.05 0 0 1 18.86 16 3.05 3.05 0 0 1 16 19.18 3.05 3.05 0 0 1 13.14 16 3.05 3.05 0 0 1 16 12.76z" fill="#00d8ff"/></svg>