<svg xmlns="http://www.w3.org/2000/svg" viewBox="0 0 32 32"><path d="M16 0c8.837 0 16 7.163 16 16s-7.163 16-16 16S0 24.837 0 16 7.163 0 16 0z" fill="#c69" fill-rule="evenodd"/><path d="M26 6.85c-.73-2.84-5.44-3.77-9.9-2.19a22.21 22.21 0 0 0-7.59 4.35c-2.46 2.3-2.85 4.3-2.69 5.13.57 3 4.61 4.88 6.27 6.31h0c-.45.3-4.03 2.06-4.87 3.92s.14 3.38.78 3.54a5 5 0 0 0 5.46-2.16 5.52 5.52 0 0 0 .54-4.94 6.52 6.52 0 0 1 2.45-.14c2.81.33 3.36 2.08 3.25 2.82a1.82 1.82 0 0 1-.89 1.26c-.19.13-.25.17-.24.26s.12.13.29.1a2.18 2.18 0 0 0 1.52-1.96c.07-1.72-1.58-3.64-4.49-3.6a7.79 7.79 0 0 0-2.5.35l-.13-.15c-1.8-1.92-5.13-3.28-5-5.87.05-.94.37-3.42 6.4-6.42 4.93-2.46 8.89-1.78 9.57-.28 1 2.14-2.11 6.12-7.24 6.7a3.87 3.87 0 0 1-3.24-.82c-.26-.31-.3-.31-.4-.25s-.06.36 0 .51a3.07 3.07 0 0 0 1.85 1.43 9.76 9.76 0 0 0 6-.6c3.12-1.16 5.55-4.51 4.8-7.3zM12.82 21.33a4.06 4.06 0 0 1-.03 2.42l-.09.24c0 .08-.07.16-.1.23a5 5 0 0 1-.74 1.08c-.93.98-2.23 1.36-2.79 1.04s-.3-1.78.78-2.92a10.64 10.64 0 0 1 2.83-2z" fill="#fff"/></svg>